<mxfile host="app.diagrams.net" modified="2023-05-04T01:23:25.104Z" agent="Mozilla/5.0 (Windows NT 10.0; Win64; x64) AppleWebKit/537.36 (KHTML, like Gecko) Chrome/112.0.0.0 Safari/537.36" version="21.1.2" etag="uuNW-f1mZP377yPZvzfs" type="github">
  <diagram name="Page-1" id="UdssySAxmzUDZfPrxFSe">
    <mxGraphModel>
      <root>
        <mxCell id="0" />
        <mxCell id="1" parent="0" />
      </root>
    </mxGraphModel>
  </diagram>
</mxfile>
